<svg id="Capa_1" enable-background="new 0 0 512 512" height="512" viewBox="0 0 512 512" width="512" xmlns="http://www.w3.org/2000/svg"><g><g><g><path d="m367.407 429.109h-229.17c-11.562 0-22.34-6.466-27.225-16.945-4.755-10.202-3.339-21.954 3.726-30.746l47.206-58.734 21.779 17.504-47.206 58.734c-.19.237-.544.678-.169 1.462.376.784.941.784 1.244.784h229.814c7.716 0 13.971 6.255 13.971 13.971.001 7.715-6.254 13.97-13.97 13.97z" fill="#99e6fc"/></g><g fill="#62dbfb"><path d="m166.107 340.188-47.206 58.734c-.19.237-.544.678-.169 1.462.376.784.941.784 1.245.784h17.616c-.304 0-.869 0-1.244-.784-.376-.784-.021-1.225.169-1.462l47.206-58.734-21.779-17.504-6.914 8.602z"/><path d="m367.407 401.167h-33.405c7.716 0 13.971 6.255 13.971 13.971 0 7.716-6.255 13.971-13.971 13.971h33.405c7.716 0 13.971-6.255 13.971-13.971 0-7.716-6.255-13.971-13.971-13.971z"/></g><path d="m445.092 155.976-56.033 152.241c-2.036 5.528-7.365 9.251-13.262 9.251h-242.142c-7.784 0-14.12-6.337-14.12-14.13l-.002-175.303v-49.06c0-19.25-15.661-34.911-34.911-34.911h-24.18v27.941h24.179c3.843 0 6.97 3.126 6.97 6.969l.003 63.028v.003 161.332c0 23.201 18.87 42.072 42.062 42.072h242.143c17.553 0 33.42-11.067 39.487-27.542l62.948-171.042c1.575-4.281-33.142 9.151-33.142 9.151z" fill="#c8effe"/><g fill="#99e6fc"><path d="m101.916 78.974v49.06l.002 175.303c0 7.794 6.337 14.13 14.12 14.13h17.616c-7.784 0-14.12-6.337-14.12-14.13l-.002-175.303v-49.06c0-19.25-15.661-34.911-34.911-34.911h-17.617c19.25.001 34.912 15.662 34.912 34.911z"/><path d="m459.134 150.853-61.466 167.014c-6.067 16.475-21.934 27.542-39.487 27.542h17.616c17.553 0 33.42-11.067 39.487-27.542l62.948-171.042c.886-2.403-9.67.777-19.098 4.028z"/></g><g><path d="m504.5 135.79v12.43c0 6.48-5.26 11.74-11.75 11.74h-373.22v-35.92h373.22c6.49 0 11.75 5.26 11.75 11.75z" fill="#a9b5bf"/></g><path d="m492.752 124.04h-42.653c6.488 0 11.748 5.26 11.748 11.748v12.429c0 6.488-5.26 11.748-11.748 11.748h42.653c6.488 0 11.748-5.26 11.748-11.748v-12.429c0-6.488-5.26-11.748-11.748-11.748z" fill="#8d9ca8"/><path d="m313.97 124.04c-4.87 14.18-13.59 26.56-24.91 35.92h-102.81c-11.32-9.36-20.04-21.74-24.91-35.92z" fill="#8d9ca8"/><path d="m60.442 44.064v27.941h-43.262c-5.346 0-9.68-4.334-9.68-9.68v-8.58c0-5.346 4.334-9.681 9.68-9.681z" fill="#ed74b7"/><path d="m34.706 44.064h25.736v27.941h-25.736z" fill="#e759aa"/><circle cx="166.557" cy="475.136" fill="#8d9ca8" r="19.828"/><path d="m186.38 475.14c0 10.95-8.87 19.82-19.82 19.82-3.37 0-6.54-.84-9.31-2.32 6.26-3.33 10.52-9.92 10.52-17.5 0-7.59-4.26-14.18-10.52-17.51 2.77-1.48 5.94-2.32 9.31-2.32 10.95 0 19.82 8.87 19.82 19.83z" fill="#7a8c98"/><circle cx="340.988" cy="475.136" fill="#8d9ca8" r="19.828"/><path d="m360.82 475.14c0 10.95-8.88 19.82-19.83 19.82-3.36 0-6.53-.84-9.31-2.32 6.26-3.33 10.52-9.92 10.52-17.5 0-7.59-4.26-14.18-10.52-17.51 2.78-1.48 5.95-2.32 9.31-2.32 10.95 0 19.83 8.87 19.83 19.83z" fill="#7a8c98"/><circle cx="269.754" cy="97.743" fill="#a2e62e" r="80.707"/><path d="m350.46 97.74c0 44.58-36.13 80.71-80.71 80.71-5.5 0-10.86-.55-16.05-1.6 36.89-7.44 64.66-40.03 64.66-79.11s-27.77-71.66-64.66-79.1c5.19-1.05 10.55-1.6 16.05-1.6 44.58 0 80.71 36.13 80.71 80.7z" fill="#95ce25"/><path d="m303.256 99.754c-4.882-4.882-12.796-4.882-17.678 0l-3.832 3.832v-41.356c0-6.904-5.596-12.5-12.5-12.5-6.904 0-12.5 5.596-12.5 12.5v40.344l-2.819-2.819c-4.882-4.881-12.796-4.881-17.678 0-4.882 4.882-4.882 12.796 0 17.678l24.664 24.664c4.882 4.881 12.796 4.881 17.678 0l24.664-24.664c4.883-4.883 4.883-12.797.001-17.679z" fill="#fff9e2"/><g fill="#fcf1c3"><path d="m262.78 51.54c1.89-1.15 4.1-1.81 6.47-1.81 6.9 0 12.5 5.6 12.5 12.5l-.003 41.356-7.833.002c-2.824.001-5.114-2.288-5.114-5.113v-36.245c0-4.53-2.41-8.5-6.02-10.69z"/><path d="m303.26 117.43-24.67 24.67c-4.15 4.15-10.5 4.77-15.31 1.85.84-.51 1.63-1.12 2.36-1.85l24.66-24.67c4.89-4.88 4.89-12.79 0-17.68-.73-.73-1.52-1.34-2.36-1.85 4.8-2.92 11.16-2.3 15.32 1.85 4.88 4.89 4.88 12.8 0 17.68z"/></g></g><g><path d="m492.75 116.54h-136.813c1.32-6.06 2.023-12.347 2.023-18.797 0-11.905-2.333-23.458-6.935-34.336-1.614-3.815-6.016-5.598-9.829-3.985-3.814 1.613-5.6 6.014-3.985 9.829 3.814 9.02 5.749 18.605 5.749 28.492 0 40.366-32.84 73.207-73.206 73.207-40.367 0-73.207-32.841-73.207-73.207s32.84-73.207 73.207-73.207c17.965 0 35.241 6.57 48.647 18.501 3.096 2.755 7.836 2.478 10.589-.616 2.754-3.095 2.478-7.835-.616-10.589-16.156-14.378-36.975-22.296-58.62-22.296-48.638 0-88.207 39.569-88.207 88.207 0 6.45.702 12.737 2.023 18.797h-56.54v-37.57c0-23.385-19.025-42.41-42.41-42.41l-67.439.004c-9.474-.001-17.181 7.707-17.181 17.18v8.58c0 9.474 7.707 17.181 17.181 17.181l66.909-.005v223.84c0 25.514 19.374 46.581 44.18 49.273l-19.373 24.106c-8.854 11.008-10.649 25.801-4.683 38.613 6.032 12.926 19.388 21.278 34.027 21.278h20.816v12.252c-11.432 3.269-19.828 13.806-19.828 26.273 0 15.068 12.259 27.328 27.328 27.328s27.328-12.26 27.328-27.328c0-12.468-8.396-23.004-19.828-26.273v-12.252h159.431v12.252c-11.432 3.269-19.827 13.806-19.827 26.273 0 15.068 12.259 27.328 27.327 27.328s27.328-12.26 27.328-27.328c0-12.467-8.396-23.004-19.828-26.273v-12.252h18.923c5.721 0 11.109-2.229 15.183-6.286 4.054-4.054 6.287-9.446 6.287-15.185 0-11.839-9.631-21.47-21.47-21.47h-217.051l32.754-40.76h49.475c4.142 0 7.5-3.357 7.5-7.5s-3.358-7.5-7.5-7.5h-98.939c-19.057 0-34.56-15.508-34.56-34.57v-224.369c0-7.979-6.491-14.47-14.47-14.47h-16.679v-12.94h16.679c15.114 0 27.41 12.296 27.41 27.41v224.37c0 11.927 9.699 21.63 21.62 21.63h242.15c9.017 0 17.173-5.688 20.298-14.159l52.763-143.349h13.787l-54.406 147.818c-4.981 13.535-18.019 22.63-32.442 22.63h-107.093c-4.143 0-7.5 3.357-7.5 7.5s3.357 7.5 7.5 7.5h107.093c20.683 0 39.377-13.041 46.519-32.449l56.313-153h14.119c10.614 0 19.25-8.631 19.25-19.24v-12.43c-.001-10.615-8.637-19.251-19.251-19.251zm-313.865 358.596c0 6.798-5.53 12.328-12.328 12.328-6.797 0-12.328-5.53-12.328-12.328s5.53-12.328 12.328-12.328c6.797 0 12.328 5.53 12.328 12.328zm174.43 0c0 6.798-5.53 12.328-12.328 12.328-6.797 0-12.327-5.53-12.327-12.328s5.53-12.328 12.327-12.328c6.798 0 12.328 5.53 12.328 12.328zm-222.683-80.862c-2.158 2.728-2.548 6.214-1.049 9.338 1.506 3.168 4.496 5.058 8.007 5.058h229.82c3.567 0 6.47 2.902 6.47 6.47 0 1.73-.672 3.355-1.883 4.566-1.232 1.228-2.862 1.904-4.587 1.904h-229.17c-8.835 0-16.856-4.954-20.432-12.616-3.533-7.588-2.47-16.353 2.778-22.876l26.688-33.208h16.597zm-115.632-331.95v-8.58c0-1.202.978-2.181 2.181-2.181h35.759v12.941h-35.759c-1.203.001-2.181-.978-2.181-2.18zm249.685 247.646 6.555-65.75h62.93l-11.914 65.75zm-68.135 0v-65.75h59.616l-6.555 65.75zm-69.52-142.51h54.52v61.76h-54.52zm69.52 0h19.232c13.01 10.095 28.909 16.632 46.228 18.146l-4.348 43.614h-61.112zm76.185 61.76 4.344-43.576c17.478-1.444 33.526-8.005 46.64-18.179l24.358-.001-11.19 61.756zm-84.452-97.68c3.148 7.56 7.317 14.591 12.336 20.92h-73.59v-20.92zm-61.253 171.8v-59.12h54.52v65.75h-47.9c-3.65 0-6.62-2.975-6.62-6.63zm254.993 2.284c-.959 2.6-3.46 4.346-6.224 4.346h-38.299l11.914-65.75h55.21zm28.123-76.404h-58.014l11.19-61.756 69.555-.002zm86.854-81c0 2.338-1.906 4.24-4.25 4.24l-153.866.004c5.021-6.33 9.191-13.363 12.34-20.924h141.526c2.344 0 4.25 1.906 4.25 4.25z"/><path d="m269.247 42.229c-11.028 0-20 8.972-20 20v26.807c-6.401-1.352-13.339.454-18.3 5.415-3.777 3.777-5.857 8.8-5.857 14.142 0 5.343 2.081 10.365 5.858 14.143l24.664 24.663c3.777 3.778 8.8 5.858 14.143 5.858 5.342 0 10.364-2.08 14.143-5.857l24.664-24.664c7.797-7.798 7.797-20.485 0-28.284l-.001-.001c-5.224-5.222-12.641-6.948-19.312-5.173v-27.049c-.002-11.028-8.974-20-20.002-20zm21.636 62.829c1.948-1.948 5.12-1.95 7.07 0 1.949 1.949 1.949 5.121 0 7.07l-24.664 24.664c-.944.945-2.2 1.465-3.535 1.465-1.336 0-2.591-.52-3.535-1.465l-24.665-24.664c-.944-.944-1.464-2.199-1.464-3.535 0-1.335.52-2.591 1.464-3.535.975-.975 2.256-1.462 3.537-1.462 1.28 0 2.561.487 3.535 1.461l2.819 2.819c2.145 2.146 5.373 2.786 8.174 1.627 2.803-1.161 4.63-3.896 4.63-6.93v-40.344c0-2.757 2.243-5 5-5s5 2.243 5 5v41.356c0 3.033 1.827 5.769 4.63 6.929 2.804 1.163 6.027.52 8.174-1.625z"/></g></g></svg>